:SAMPLES-PER-SECOND 30
:FULLY-SPECIFIED
:DEGREES
270
root  32.8799 33.3522 -4.53615 19.6698 -71.2917 -9.85529
RightUpLeg  -24.0809 -15.2089 10.6493
RightLeg  17.6775 -2.67859 -0.667356
RightFoot  3.70207 0.0244138 -0.382036
RightToes  -24.9353 -0.109643 -0.21527
Spine  4.52997 -5.68663 1.5635
Spine1  8.11448 -12.4356 3.89385
HEad  15.3075 0.430861 9.21562
LeftShoulder1  0 -2.42657e-020 -4.95415e-022
LeftArm  -26.7185 -5.24448 -83.5444
LeftForeArm  54.1027 -19.9094 -3.62225
LeftHand  0.335284 -9.66021 -4.33926
RightShoulder  0 2.42657e-020 1.07489e-018
RightArm  -60.9828 -19.94 79.6794
RightForeArm  45.5462 17.3902 3.14361
RightHand  -0.754855 20.7299 -3.75651
LeftUpLeg  -4.33039 7.11447 7.79314
LeftLeg  20.214 0.0533088 0.0134314
LeftFoot  -6.17454 -0.0067065 -0.124353
LeftToes  -25.3791 1.33192e-006 1.13262e-007
271
root  33.7806 33.2422 -4.60318 19.341 -69.655 -9.18103
RightUpLeg  -26.4747 -16.6601 11.0202
RightLeg  18.5367 -2.65385 -0.703954
RightFoot  4.42859 0.0327932 -0.470475
RightToes  -25.4963 -0.11417 -0.219479
Spine  5.11884 -5.66899 1.35551
Spine1  9.04815 -12.6706 3.88469
HEad  13.6389 -1.88963 10.8173
LeftShoulder1  0 -2.42657e-020 -4.95415e-022
LeftArm  -25.2095 -8.74045 -84.7879
LeftForeArm  55.0075 -18.8556 -3.41171
LeftHand  0.312459 -9.58091 -4.10001
RightShoulder  0 2.42657e-020 1.07489e-018
RightArm  -59.233 -17.9283 80.9069
RightForeArm  47.7465 17.0062 3.06605
RightHand  -0.736446 21.3068 -3.54455
LeftUpLeg  -5.65592 8.14728 7.5309
LeftLeg  19.5521 -1.47458 -0.421473
LeftFoot  -7.99869 0.00603809 0.0863538
LeftToes  -23.0898 1.33192e-006 1.13262e-007
272
root  34.7118 33.1356 -4.68134 19.0303 -68.0948 -8.42766
RightUpLeg  -28.8216 -17.3137 11.1752
RightLeg  19.1246 -3.2731 -0.904097
RightFoot  5.51804 0.0493558 -0.646507
RightToes  -25.2753 -0.112776 -0.217825
Spine  5.62988 -5.65782 1.14489
Spine1  9.88088 -12.8717 3.82292
HEad  12.6096 -4.09752 12.6438
LeftShoulder1  0 -2.42657e-020 -4.95415e-022
LeftArm  -23.1869 -11.5733 -86.0639
LeftForeArm  55.3374 -18.0768 -3.25852
LeftHand  0.303221 -9.48627 -4.0261
RightShoulder  0 2.42657e-020 1.07489e-018
RightArm  -55.4953 -15.921 81.8507
RightForeArm  49.5188 17.346 3.12869
RightHand  -0.712778 21.829 -3.32607
LeftUpLeg  -7.65372 9.14954 7.14785
LeftLeg  19.1983 -3.32166 -0.923874
LeftFoot  -9.66818 0.0377267 0.446081
LeftToes  -21.972 1.33192e-006 1.13262e-007
273
root  35.675 33.045 -4.72282 18.1825 -66.8656 -7.05772
RightUpLeg  -31.0998 -17.5667 10.891
RightLeg  19.4562 -4.19986 -1.18559
RightFoot  6.91381 0.0776492 -0.907726
RightToes  -24.387 -0.107241 -0.211125
Spine  6.09501 -5.64444 0.861656
Spine1  10.6994 -13.0069 3.5403
HEad  11.7088 -6.02249 14.4683
LeftShoulder1  0 -2.42657e-020 -4.95415e-022
LeftArm  -21.0834 -13.5944 -87.2528
LeftForeArm  55.3517 -17.801 -3.20482
LeftHand  0.337825 -9.62911 -4.38229
RightShoulder  0 2.42657e-020 1.07489e-018
RightArm  -50.6831 -13.9328 82.5572
RightForeArm  50.3153 18.6037 3.37236
RightHand  -0.689584 22.2052 -3.1438
LeftUpLeg  -10.2594 8.68508 6.3064
LeftLeg  20.3504 -4.77797 -1.43106
LeftFoot  -11.11 0.0802042 0.824633
LeftToes  -22.7858 1.33192e-006 1.13262e-007
274
root  36.5244 33.0112 -4.74647 16.2421 -66.5083 -5.24136
RightUpLeg  -32.1037 -17.4796 9.96682
RightLeg  19.1739 -4.74375 -1.31325
RightFoot  8.51365 0.114773 -1.16424
RightToes  -22.7367 -0.0972344 -0.198454
Spine  6.83265 -5.5784 0.358608
Spine1  12.1922 -12.9278 2.69469
HEad  11.0405 -7.09061 16.2774
LeftShoulder1  0 -2.42657e-020 -4.95415e-022
LeftArm  -19.8241 -14.776 -87.779
LeftForeArm  55.041 -18.1898 -3.28116
LeftHand  0.383148 -9.9833 -4.75787
RightShoulder  0 2.42657e-020 1.07489e-018
RightArm  -45.3017 -11.3412 83.2357
RightForeArm  50.1066 20.1457 3.6784
RightHand  -0.760499 22.5045 -3.45209
LeftUpLeg  -12.5571 8.44891 5.1047
LeftLeg  22.6718 -5.41697 -1.86342
LeftFoot  -11.6694 0.102228 1.00036
LeftToes  -23.5545 1.33192e-006 1.13262e-007
275
root  37.2423 33.0089 -4.73776 15.0884 -67.0999 -4.15404
RightUpLeg  -32.4865 -17.6739 9.43925
RightLeg  17.7691 -3.93955 -0.987504
RightFoot  10.8969 0.152916 -1.22548
RightToes  -23.0234 -0.098946 -0.200675
Spine  7.22899 -5.18658 -0.163751
Spine1  13.1396 -11.9909 1.51965
HEad  11.3023 -7.74425 17.2819
LeftShoulder1  0 -2.42657e-020 -4.95415e-022
LeftArm  -18.3332 -14.1678 -87.7371
LeftForeArm  53.5671 -19.2263 -3.48765
LeftHand  0.424451 -10.2398 -5.10802
RightShoulder  0 2.42657e-020 1.07489e-018
RightArm  -40.6675 -9.23582 83.8345
RightForeArm  49.9678 21.5316 3.95879
RightHand  -0.932104 22.4418 -4.32714
LeftUpLeg  -13.9735 7.57715 3.93248
LeftLeg  23.8339 -4.82199 -1.76978
LeftFoot  -11.9466 0.0945557 0.903658
LeftToes  -22.4134 1.33192e-006 1.13262e-007
276
root  37.8213 33.0239 -4.68415 14.2672 -68.4109 -3.64377
RightUpLeg  -32.2018 -17.1059 8.72509
RightLeg  16.1844 -2.7674 -0.612848
RightFoot  13.3085 0.171193 -1.08973
RightToes  -26.2651 -0.119066 -0.225188
Spine  7.4258 -4.5936 -0.607341
Spine1  13.7166 -10.5419 0.376296
HEad  12.2322 -7.82537 17.0062
LeftShoulder1  0 -2.42657e-020 -4.95415e-022
LeftArm  -17.8979 -12.5639 -87.5447
LeftForeArm  52.1028 -20.1917 -3.68249
LeftHand  0.49686 -10.3708 -5.84472
RightShoulder  0 2.42657e-020 1.07489e-018
RightArm  -37.3556 -7.65724 84.1995
RightForeArm  49.81 23.2334 4.31082
RightHand  -1.05145 22.8194 -4.83792
LeftUpLeg  -14.2948 7.40098 2.95709
LeftLeg  23.9703 -4.79308 -1.77216
LeftFoot  -12.0175 0.0969463 0.921002
LeftToes  -20.2325 1.33192e-006 1.13262e-007
277
root  38.2607 33.0699 -4.59437 13.2059 -69.8539 -3.14484
RightUpLeg  -31.3916 -14.8416 7.09737
RightLeg  15.2017 -1.44335 -0.293514
RightFoot  15.1981 0.154232 -0.778439
RightToes  -31.6979 -0.155786 -0.263592
Spine  7.56176 -3.99808 -0.94856
Spine1  14.1452 -9.05541 -0.645501
HEad  12.9371 -7.54602 16.4392
LeftShoulder1  0 -2.42657e-020 -4.95415e-022
LeftArm  -19.2142 -10.3311 -87.4517
LeftForeArm  51.9662 -20.7659 -3.79816
LeftHand  0.547857 -10.5243 -6.3172
RightShoulder  0 2.42657e-020 1.07489e-018
RightArm  -34.6099 -6.50297 84.2398
RightForeArm  48.3176 25.5073 4.79837
RightHand  -0.99595 22.7712 -4.57408
LeftUpLeg  -13.942 7.98584 2.13069
LeftLeg  23.6883 -4.64444 -1.69153
LeftFoot  -11.6949 0.0892355 0.871307
LeftToes  -17.9443 1.33192e-006 1.13262e-007
278
root  38.584 33.1254 -4.51507 12.5357 -71.119 -3.12564
RightUpLeg  -30.784 -10.7613 4.78161
RightLeg  15.657 0.247863 0.0529209
RightFoot  15.6816 0.0873344 -0.256632
RightToes  -39.681 -0.21594 -0.313313
Spine  7.58809 -3.47828 -1.10467
Spine1  14.3173 -7.71506 -1.39012
HEad  13.2772 -7.08014 15.8735
LeftShoulder1  0 -2.42657e-020 -4.95415e-022
LeftArm  -21.5902 -7.48007 -87.4249
LeftForeArm  52.0916 -21.0573 -3.85685
LeftHand  0.544331 -10.4435 -6.32497
RightShoulder  0 2.42657e-020 1.07489e-018
RightArm  -32.2754 -5.68571 83.9257
RightForeArm  47.1305 27.7972 5.30842
RightHand  -0.96159 22.7125 -4.41635
LeftUpLeg  -13.3336 9.41678 1.70284
LeftLeg  23.246 -4.96191 -1.76338
LeftFoot  -11.1259 0.0869218 0.892415
LeftToes  -17.1505 1.33192e-006 1.13262e-007
279
root  38.7828 33.1695 -4.43878 11.7684 -71.5446 -3.14546
RightUpLeg  -30.4902 -7.04526 2.41999
RightLeg  17.6717 1.93145 0.480736
RightFoot  13.7494 0.0176076 0.231494
RightToes  -46.6228 -0.273431 -0.349397
Spine  7.56592 -3.19627 -1.09938
Spine1  14.3807 -6.88584 -1.82121
HEad  13.4105 -6.70571 15.3711
LeftShoulder1  0 -2.42657e-020 -4.95415e-022
LeftArm  -24.0155 -4.42913 -87.3435
LeftForeArm  51.5493 -21.0602 -3.85845
LeftHand  0.522658 -10.2619 -6.18992
RightShoulder  0 2.42657e-020 1.07489e-018
RightArm  -30.7883 -5.26336 83.4367
RightForeArm  46.4258 30.026 5.8259
RightHand  -0.967093 22.7631 -4.43273
LeftUpLeg  -12.5052 9.81224 1.5209
LeftLeg  22.7585 -4.96477 -1.717
LeftFoot  -10.7039 0.0886187 0.865937
LeftToes  -16.6624 1.33192e-006 1.13262e-007
280
root  38.8574 33.2084 -4.37422 10.7014 -70.8745 -3.04945
RightUpLeg  -29.9417 -4.5481 0.28151
RightLeg  20.6969 1.81208 0.552684
RightFoot  10.7387 0.0179846 0.186186
RightToes  -44.1187 -0.252193 -0.337186
Spine  7.58353 -3.15452 -0.952849
Spine1  14.4967 -6.60276 -1.91668
HEad  13.3858 -6.91512 15.0002
LeftShoulder1  0 -2.42657e-020 -4.95415e-022
LeftArm  -26.2787 -1.76702 -87.2228
LeftForeArm  51.8182 -20.6121 -3.76744
LeftHand  0.529854 -10.0064 -6.42117
RightShoulder  0 2.42657e-020 1.07489e-018
RightArm  -30.2707 -5.1249 82.8229
RightForeArm  45.5891 32.0293 6.31228
RightHand  -0.976494 22.702 -4.49275
LeftUpLeg  -11.5675 9.84527 1.61095
LeftLeg  22.4256 -5.52236 -1.87302
LeftFoot  -10.0367 0.0861891 0.915899
LeftToes  -16.6777 1.33192e-006 1.13262e-007
281
root  38.825 33.2468 -4.32748 9.40015 -69.464 -2.65485
RightUpLeg  -28.9098 -3.48547 -1.64446
RightLeg  23.4085 0.0549585 0.0164051
RightFoot  8.38741 0.0348552 -0.0977926
RightToes  -41.5616 -0.231077 -0.323773
Spine  7.54405 -3.21141 -0.759879
Spine1  14.499 -6.567 -1.84385
HEad  13.2636 -7.81111 14.8278
LeftShoulder1  0 -2.42657e-020 -4.95415e-022
LeftArm  -28.483 0.428163 -87.0591
LeftForeArm  53.2312 -19.8603 -3.61416
LeftHand  0.547587 -9.98731 -6.63528
RightShoulder  0 2.42657e-020 1.07489e-018
RightArm  -30.711 -5.42071 82.2374
RightForeArm  44.6847 33.5813 6.70481
RightHand  -1.00142 22.5406 -4.65337
LeftUpLeg  -10.5733 9.06729 1.75617
LeftLeg  21.9757 -6.00468 -1.98333
LeftFoot  -9.41933 0.0847506 0.946144
LeftToes  -16.5995 1.33192e-006 1.13262e-007
